# xmcd
#
# Track frame offsets: 
#        150
#        21678
#        43716
#        74148
#        97084
#
# Disc length: 1594 seconds
#
# Revision: 3
# Processed by: cddbd v1.5.2PL0 Copyright (c) Steve Scherf et al.
# Submitted via: ExactAudioCopyFreeDBPlugin 1.0
#
DISCID=4d063805
DTITLE=Eminem - The Marshall Mathers LP (Bonus Disc)
DYEAR=2000
DGENRE=Rap
TTITLE0=The Real Slim Shady (Instrumental)
TTITLE1=The Way I Am (Instrumental)
TTITLE2=Stan (Instrumental)
TTITLE3=The Kids
TTITLE4=The Way I Am Feat. Marilyn Manson (Danny Lohner Remix)
EXTD=
EXTT0=
EXTT1=
EXTT2=
EXTT3=
EXTT4=
PLAYORDER=
